<svg width="27" height="27" viewBox="0 0 27 27" fill="none" xmlns="http://www.w3.org/2000/svg">
<path d="M6.40783 7.81567C7.73764 7.81567 8.81567 6.73764 8.81567 5.40783C8.81567 4.07802 7.73764 3 6.40783 3C5.07802 3 4 4.07802 4 5.40783C4 6.73764 5.07802 7.81567 6.40783 7.81567Z" fill="#F8F8F8"/>
<path d="M11.0897 9.64032V22.999H15.2374V16.3928C15.2374 14.6497 15.5653 12.9615 17.7266 12.9615C19.8582 12.9615 19.8846 14.9545 19.8846 16.5029V23.0001H24.0345V15.6742C24.0345 12.0757 23.2598 9.31018 19.0538 9.31018C17.0344 9.31018 15.6808 10.4184 15.1273 11.4671H15.0712V9.64032H11.0897V9.64032ZM4.33057 9.64032H8.48485V22.999H4.33057V9.64032Z" fill="#F8F8F8"/>
</svg>
